<?xml version="1.0" encoding="UTF-8"?>
<svg version="1.1" xmlns="http://www.w3.org/2000/svg" width="32" height="20">
<path d="M0 0 C2.04291182 1.26660533 4.04690112 2.59886384 6 4 C8.07690578 4.96044102 8.07690578 4.96044102 10 5 C10.99 4.34 11.98 3.68 13 3 C12.73136414 6.31317555 12.40940132 7.63876354 9.875 9.875 C6.07754333 11.36096131 3.92008291 11.05002221 0 10 C-0.845625 9.29875 -1.69125 8.5975 -2.5625 7.875 C-4.92775438 5.62385912 -4.92775438 5.62385912 -8.3125 6.25 C-9.6428125 6.62125 -9.6428125 6.62125 -11 7 C-10.63802104 4.37565253 -10.17343943 3.17986311 -8.3125 1.25 C-5.23140161 -0.41545859 -3.46824507 -0.48555431 0 0 Z " fill="#37BCF8" transform="translate(11,9)"/>
<path d="M0 0 C4.77880834 0.06170628 6.56480934 1.25546082 10.1875 4.375 C13.43043584 4.23882428 13.43043584 4.23882428 16.1875 3.375 C15.875 5.75 15.875 5.75 15.1875 8.375 C11.49748016 10.83501323 8.47141711 11.20338176 4.1875 10.375 C2.25300479 9.16345782 0.56122819 7.80013409 -1.203125 6.35546875 C-2.93607961 5.04182309 -2.93607961 5.04182309 -5.75 6.0625 C-6.430625 6.495625 -7.11125 6.92875 -7.8125 7.375 C-6.93151257 1.79541292 -5.76153485 0.08637983 0 0 Z " fill="#38BDF8" transform="translate(15.8125,-0.375)"/>
</svg>
